<svg data-name="Layer 1" xmlns="http://www.w3.org/2000/svg" viewBox="0 0 50.55 49.28"><defs><radialGradient id="a" cx="-183.65" cy="1671.88" r=".02" gradientTransform="matrix(2291.67 0 0 -2218.75 421816.09 3710555.94)" gradientUnits="userSpaceOnUse"><stop offset="0" stop-color="#393939" stop-opacity=".98"/><stop offset="1" stop-color="#0a0a0a"/></radialGradient></defs><path d="M929.28 1045.82h46.33v45.07h-46.33v-45.07z" transform="translate(-927.18 -1043.72)" fill="url(#a)"/><path d="M2.1 2.1h46.33v45.07H2.1V2.1zM0 49.28h50.55V0H0v49.28zm35.76-25.53a9.32 9.32 0 0 0 1.56 0v-.36c0-1.14-.55-3.24-2.74-3.24-2 0-2.89 1.77-3.1 3.64h4.23zm-4.28 2.89c0 2.84 1.39 4.76 4.59 4.76a8.24 8.24 0 0 0 3.43-.65c.15-.06.25 0 .25.15v2.63a.45.45 0 0 1-.21.42 9.55 9.55 0 0 1-4.23.8c-5.56 0-7.64-4.11-7.64-8.68 0-5 2.57-9 7.1-9s6.19 3.85 6.19 7a10.65 10.65 0 0 1-.14 2.21.31.31 0 0 1-.27.27 30.49 30.49 0 0 1-3.52.15h-5.52zm-11.29-2.15c-.59-2.34-2-7.43-2.55-9.9-.44 2.46-1.6 6.63-2.46 9.9h5.05zm-5.92 3.41l-1.66 6.3a.26.26 0 0 1-.32.23h-3.1c-.21 0-.25-.06-.21-.32l6-20.91a6.46 6.46 0 0 0 .21-1.73.17.17 0 0 1 .17-.21h4.46a.22.22 0 0 1 .25.21l6.7 22.68c0 .17 0 .27-.17.27h-3.47a.29.29 0 0 1-.32-.21l-1.73-6.32h-6.76z" fill="#bcbcbc"/></svg>