<svg data-name="Layer 1" xmlns="http://www.w3.org/2000/svg" viewBox="0 0 124.17 46.63"><path d="M40.12 17.11c-2.43 0-5.14.94-5.71 4a.43.43 0 00.37.53l2.49.3a.56.56 0 00.43-.5 2 2 0 012.06-1.56 1.66 1.66 0 011.43.66 3.43 3.43 0 01.33 1.89v.37a17.34 17.34 0 00-4.82.9 4.46 4.46 0 00-2.77 4.32c0 2.72 1.67 4.08 3.82 4.08a5 5 0 004.22-1.89 6.27 6.27 0 001.46 1.73.51.51 0 00.6-.07c.51-.47 1.44-1.31 2-1.76a.5.5 0 000-.7 3.61 3.61 0 01-1-2.42v-4.08c0-1.73.15-3.33-1.1-4.52a5.72 5.72 0 00-3.85-1.3zm33.47 0c-2.43 0-5.14.94-5.71 4a.43.43 0 00.37.53l2.49.3a.56.56 0 00.43-.5 2 2 0 012.06-1.56 1.66 1.66 0 011.43.66 3.42 3.42 0 01.3 1.89v.37a17.12 17.12 0 00-4.78.9 4.46 4.46 0 00-2.72 4.28c0 2.72 1.67 4.08 3.82 4.08a5 5 0 004.22-1.89 6.25 6.25 0 001.46 1.73.51.51 0 00.6-.07c.51-.47 1.44-1.31 2-1.76a.51.51 0 000-.7 3.61 3.61 0 01-1-2.42v-4.08c0-1.73.11-3.33-1.13-4.52a5.63 5.63 0 00-3.82-1.3zm-18.83.13a3.37 3.37 0 00-3.35 2.49v-1.76a.5.5 0 00-.47-.47h-2.39a.51.51 0 00-.5.5v13.45a.52.52 0 00.47.47h2.56a.5.5 0 00.5-.5v-7.14c0-1.56-.08-3.69 1.76-3.69s1.56 2.19 1.56 3.69v7.14a.51.51 0 00.47.5h2.56a.5.5 0 00.5-.5v-7.14a8.18 8.18 0 01.23-2.56 1.72 1.72 0 011.53-1.13 1.33 1.33 0 011.49 1.16 17.77 17.77 0 01.07 2.52v7.14a.51.51 0 00.47.5h2.56a.5.5 0 00.5-.5v-8.5c0-1.44.15-3.08-.66-4.22a3.73 3.73 0 00-6.47 1c-.72-1.7-1.73-2.49-3.32-2.49zm43.47 0c-3.69 0-5.74 3.25-5.74 7.44s2 7.5 5.74 7.5 5.84-3.27 5.84-7.37-2.06-7.57-5.84-7.57zm14.58 0c-1.77 0-2.77.88-3.49 2.72V17.9a.49.49 0 00-.47-.37h-2.36a.49.49 0 00-.5.43v13.45a.51.51 0 00.47.5h2.47a.51.51 0 00.5-.5v-7.24a6.22 6.22 0 01.43-2.56 1.64 1.64 0 011.46-1.06c1.76 0 1.59 2.15 1.59 3.62v7.31a.5.5 0 00.47.43h2.55a.51.51 0 00.5-.43v-8.46c0-1.3 0-3.11-.66-4.18a3.35 3.35 0 00-3-1.59zm-30.69.23a.47.47 0 00-.47.5v1.93a.47.47 0 00.47.5h4.38l-5 7.41a2.44 2.44 0 00-.33 1.33v2a.44.44 0 00.6.43 9.44 9.44 0 018.87 0 .46.46 0 00.63-.43v-2.12a.87.87 0 00-.47-.73 9.12 9.12 0 00-4.78-1.06l4.35-6.38a2.7 2.7 0 00.63-1.2v-1.66a.47.47 0 00-.47-.5h-8.4zm16.11 2.52a1.63 1.63 0 011.69 1.3 12.74 12.74 0 01.37 3.55c0 1.73-.08 4.58-2.06 4.58s-2-3.54-2-5.18.12-4.22 2.01-4.22zM41.47 24.9v.56a5.28 5.28 0 01-.47 2.79 2.06 2.06 0 01-1.76 1.2 1.66 1.66 0 01-1.56-1.93c.02-2.22 1.96-2.61 3.8-2.61zm33.47 0v.56a5.28 5.28 0 01-.47 2.79 2.06 2.06 0 01-1.76 1.2 1.66 1.66 0 01-1.56-1.93c.02-2.22 1.96-2.61 3.78-2.61z" fill="#1d1d1d"/><path d="M91.53 32.35v1.93h1.3v-1.93h-1.3zm-37.56.33V46.4h1.2v-1.23a3 3 0 00.9 1.1 2 2 0 001.2.37 2.79 2.79 0 002.29-1.36 6.69 6.69 0 001-3.92 7.91 7.91 0 00-.43-2.79 3.84 3.84 0 00-1.16-1.73 2.62 2.62 0 00-1.63-.6 2.13 2.13 0 00-1.16.33 3.06 3.06 0 00-.9 1v-4.91h-1.35zm12.29 3.22a2.69 2.69 0 00-2.89 2.86 2.89 2.89 0 00.3 1.3 2.35 2.35 0 00.8.93 9 9 0 002 .86 4.55 4.55 0 011.3.56 1.09 1.09 0 01.4.9 1.5 1.5 0 01-.47 1.13 1.78 1.78 0 01-1.3.43 1.84 1.84 0 01-1.36-.5 2.54 2.54 0 01-.6-1.56l-1.3.27c.29 2.13 1.35 3.19 3.19 3.19a3 3 0 002.29-.86 3.24 3.24 0 00.86-2.33 3.09 3.09 0 00-.27-1.33 2.1 2.1 0 00-.73-.86 10.47 10.47 0 00-2.09-.86 6.41 6.41 0 01-1.39-.6 1 1 0 01-.4-.86 1.17 1.17 0 01.4-.93 1.89 1.89 0 011.26-.37 1.56 1.56 0 011.66 1.63l1.26-.2a4.07 4.07 0 00-.47-1.59 2.48 2.48 0 00-1-.9 3.24 3.24 0 00-1.49-.3zm7.94 0a3.1 3.1 0 00-2.59 1.33 6.45 6.45 0 00-1 3.92 6.24 6.24 0 001 3.82 3.13 3.13 0 002.62 1.3 3 3 0 002.16-.8 4.38 4.38 0 001.23-2.39l-1.33-.23c-.38 1.36-1.09 2-2.06 2a1.88 1.88 0 01-1.56-.83 4.47 4.47 0 01-.73-2.52h5.71v-.48a6.26 6.26 0 00-1-3.82 3 3 0 00-2.45-1.33zm7.87 0a1.19 1.19 0 00-.83.33 4.29 4.29 0 00-.83 1.39v-1.53h-1.16v9.93h1.3v-5.18a8.32 8.32 0 01.23-2.06 1.7 1.7 0 01.5-.86 1.12 1.12 0 01.76-.3 1.54 1.54 0 01.93.37l.43-1.56a2.13 2.13 0 00-1.33-.53zm15.87 0a3 3 0 00-2.52 1.3 6.41 6.41 0 00-1 3.89 6.48 6.48 0 001 3.89 2.92 2.92 0 002.46 1.3 2.82 2.82 0 002.13-.93 4.71 4.71 0 001.1-2.72l-1.26-.2a3.35 3.35 0 01-.66 1.86 1.61 1.61 0 01-1.26.6 1.81 1.81 0 01-1.56-.9 5.43 5.43 0 01-.6-2.92 5.06 5.06 0 01.63-2.86 1.91 1.91 0 011.59-.93 1.43 1.43 0 011.1.5 3.07 3.07 0 01.63 1.53l1.21-.29a4 4 0 00-1-2.36 2.73 2.73 0 00-2-.76zm7.41 0a3.1 3.1 0 00-2.59 1.33 6.45 6.45 0 00-1 3.92 6.24 6.24 0 001 3.82 3.13 3.13 0 002.62 1.3 3 3 0 002.16-.8 4.4 4.4 0 001.23-2.39l-1.33-.23c-.38 1.36-1.05 2-2 2a1.94 1.94 0 01-1.59-.83 4.48 4.48 0 01-.73-2.52h5.71v-.48a6.26 6.26 0 00-1-3.82 3 3 0 00-2.46-1.33zm7.67 0a2.69 2.69 0 00-2.89 2.86 2.88 2.88 0 00.27 1.3 2.34 2.34 0 00.8.93 9 9 0 002 .86 5 5 0 011.33.56 1.09 1.09 0 01.4.9 1.5 1.5 0 01-.47 1.13 1.77 1.77 0 01-1.3.43 1.83 1.83 0 01-1.36-.5 2.54 2.54 0 01-.63-1.56l-1.3.27c.29 2.13 1.35 3.19 3.19 3.19a3.08 3.08 0 002.33-.86 3.24 3.24 0 00.86-2.33 3.09 3.09 0 00-.27-1.33 2.16 2.16 0 00-.76-.86 9.88 9.88 0 00-2.06-.86 7.08 7.08 0 01-1.43-.6 1 1 0 01-.4-.86 1.2 1.2 0 01.43-.93 1.9 1.9 0 011.26-.37 1.56 1.56 0 011.66 1.63l1.26-.2a4.07 4.07 0 00-.47-1.59 2.48 2.48 0 00-1-.9 3.23 3.23 0 00-1.49-.3zm-29.62.2l2.89 9.93h1.23l2.89-9.93h-1.33l-1.69 6.08c-.21.73-.39 1.37-.5 1.89-.14-.66-.28-1.35-.47-2l-1.66-5.94H83.4zm8.14 0v9.92h1.3v-9.93h-1.3zm-42.57.13a3 3 0 00-2.52 1.36 6.48 6.48 0 00-1 3.92 6.16 6.16 0 001 3.79 3.17 3.17 0 002.62 1.33 3 3 0 002.13-.83 4.4 4.4 0 001.2-2.39l-1.3-.2c-.38 1.36-1.06 2-2 2a1.88 1.88 0 01-1.56-.83 4.51 4.51 0 01-.73-2.52h5.65v-.47a6.41 6.41 0 00-1-3.85A3 3 0 0049 36.21zm-14.58.23l2.33 9.93h1.36l1.53-7.64.27 1.69 1.23 5.94h1.33l2.36-9.93h-1.23l-1.3 5.74-.43 1.93-.4-1.93-1.13-5.74h-1.38l-1.2 5.81-.4 2.06-.47-2.13-1.2-5.74h-1.33zm82.66.1v.46h1.26v3.32h.5v-3.32h1.26v-.47h-3zm3.52 0v3.79h.47v-3.22l1.1 3.22h.47l1.1-3.16v3.16h.5v-3.79h-.7l-.9 2.66-.2.6-.2-.56-.9-2.69h-.73zm-46.39.7a1.87 1.87 0 011.59.93 4 4 0 01.53 1.93h-4.28a3.46 3.46 0 01.7-2.06 1.83 1.83 0 011.44-.8zm31.15 0a1.87 1.87 0 011.59.93 4 4 0 01.53 1.93h-4.28a3.46 3.46 0 01.7-2.06 1.83 1.83 0 011.44-.8zm-56.36.37a1.82 1.82 0 011.56.93 4 4 0 01.53 1.93h-4.23a3.57 3.57 0 01.66-2.09 1.79 1.79 0 011.44-.77zm8.24 0a1.74 1.74 0 011.46.93 7.32 7.32 0 010 5.71 1.75 1.75 0 01-1.43 1 1.61 1.61 0 01-1.06-.4 2.52 2.52 0 01-.73-1.16 7.69 7.69 0 01-.27-2.33 5 5 0 01.63-2.76 1.76 1.76 0 011.43-1z"/><path d="M15.76 27.1l-4.95 2.13 4.58 2 5.31-2zm-7.44 2.66l-.17 9.56 7.24 3.19v-9.93l-7.07-2.82zm14.88 0l-6.54 2.49v9.36l6.54-2.66v-9.2zM31 0l-5 2.13 4.62 2 5.31-2L30.98 0zm-6.91 2.82v9.56l6.18 1.79.2-8.7zm13.81.53l-5.84 2.49v9.4l5.84-2.66V3.35zM7.6 13.46l-4.95 2.13 4.58 2 5.31-2-4.95-2.13zM.16 16.12l-.17 9.56 7.24 3.19v-9.93zm14.88 0L8.5 18.61v9.41l6.54-2.66v-9.2zm8.5-3l-4.95 2.13 4.58 2 5.31-2-4.95-2.13zm-7.44 2.66l-.17 9.56 7.24 3.19V18.6zm14.88 0l-6.54 2.49v9.36l6.54-2.66v-9.2zM46.57.02l-4.95 2.13 4.58 2 5.31-2zm-7.44 2.66l-.2 9.54 7.24 3.19V5.48L39.1 2.66zm14.88 0l-6.54 2.49v9.36l6.54-2.66v-9.2z" fill="#afafaf"/></svg>