<svg data-name="Layer 1" xmlns="http://www.w3.org/2000/svg" viewBox="0 0 35.47 48.7"><path d="M0 39.31l.29-.41 13.95-26.46v-.28L8.09.61a1.14 1.14 0 00-2.13.36z" fill="#c7c7c7"/><path d="M.17 38.99l.22-.43 13.8-26.18L8.06.79a1.016 1.016 0 00-2 .36z" fill="#b1b1b1"/><path d="M18.75 20.89l4.58-4.69-4.58-8.74a1.18 1.18 0 00-2.08 0l-2.45 4.66v.4l4.53 8.37z" fill="#c3c3c3"/><path d="M18.67 20.69l4.45-4.56-4.45-8.47a1 1 0 00-1.87-.08l-2.46 4.74-.07.24z" fill="#afafaf"/><path d="M0 39.31l.13-.13.49-.2L18.46 21.2l.23-.62-4.45-8.48z" fill="#989898"/><path d="M19.32 48.27l16.15-9-4.61-28.4a1.1 1.1 0 00-1.87-.6l-29 29 16.06 9a3.35 3.35 0 003.27 0" fill="#dbdbdb"/><path d="M35.33 39.19L30.75 11a1 1 0 00-1.68-.61L.18 39.25l15.88 8.88a3.33 3.33 0 003.24 0l16-8.94z" fill="#cacaca"/></svg>