<svg data-name="Layer 1" xmlns="http://www.w3.org/2000/svg" viewBox="0 0 34.06 48.08"><path d="M3.1 44.22L0 9.45h34.06l-3.1 34.76-13.95 3.87z"/><path d="M17.03 45.13l11.27-3.12 2.65-29.71H17.03v32.83z"/><path d="M17.03 25.19h-5.64L11 20.82h6v-4.26H6.34l.1 1.14 1 11.75h9.54v-4.26zm0 11.08l-4.75-1.28-.3-3.4H7.7l.6 6.7 8.74 2.42v-4.44z" fill="#ebebeb"/><path d="M3.17 0h2.17v2.14h2V0h2.17v6.48H7.34V4.31h-2v2.17H3.17V0zm9.17 2.15h-1.91V0h6v2.15h-1.91v4.33h-2.17V2.15zm5-2.15h2.26l1.39 2.28L22.38 0h2.26v6.48h-2.16V3.27l-1.49 2.31-1.49-2.31v3.21h-2.12V0zm8.38 0h2.17v4.38h3v2.14h-5.15V.04z"/><path d="M17.01 25.19v4.26h5.25l-.52 5.53-4.76 1.28v4.44l8.76-2.42.06-.72 1-11.23.1-1.15h-9.91zm0-8.63v4.26h10.3l.09-1 .19-2.16.1-1.14H17.01z" fill="#fff"/></svg>