<svg data-name="Layer 1" xmlns="http://www.w3.org/2000/svg" viewBox="0 0 142.83 40.7"><path d="M133.14 16.83a.57.57 0 00-.26.46c0 1-.05 3.76-.05 5.62a.19.19 0 00.15.15c.39 0 1.31.05 2.11.05a5.52 5.52 0 002.11-.31 2.74 2.74 0 001.37-2.58c0-2.5-1.75-3.45-4.36-3.45a4.13 4.13 0 00-1.08.05zm6.65 11.52c0-2.55-1.88-4-5.28-4h-1.5a.23.23 0 00-.18.16c0 1.83 0 4.74.05 5.88a1.94 1.94 0 00.85 1.39 5.9 5.9 0 002.24.31 3.52 3.52 0 003.81-3.79zm-11.91-12.94c.26 0 1 .08 3 .08s3.38-.05 5.21-.05c2.24 0 5.33.8 5.33 4.15a4 4 0 01-2.68 3.61c-.08 0-.08.08 0 .1 2.16.54 4.07 1.88 4.07 4.41s-1.55 4-3.79 5a12.33 12.33 0 01-4.79.8c-1.31 0-4.85-.15-6.8-.1a1.47 1.47 0 01.36-1.16 4.81 4.81 0 001.31-.21c.7-.18.77-.39.88-1.44.05-.9.05-4.1.05-6.37v-6.26a1.06 1.06 0 00-.88-1.21c-.44-.08-1.16-.18-1.75-.26a1.81 1.81 0 01.46-1.11zm-14.87 16a5.2 5.2 0 002.91.7 5.71 5.71 0 004.12-1.47c1.37-1.24 2.32-3.14 2.32-6.19a7.38 7.38 0 00-3.38-6.68 9.12 9.12 0 00-4.85-1.13 3.86 3.86 0 00-1.44.18.76.76 0 00-.26.41c-.05.52-.05 4.48-.05 6.8s0 5.75.05 6.13a1.6 1.6 0 00.57 1.24zm-5.85-16c.49 0 2.37.08 3.27.08 1.62 0 2.78-.08 5.85-.08a9.53 9.53 0 016.29 2 8.36 8.36 0 012.86 6.6 8.64 8.64 0 01-3.56 7.42 11.92 11.92 0 01-7.4 2.09c-1.75 0-4.77-.05-7.27-.08a1.38 1.38 0 01.41-1.16 4.11 4.11 0 001.19-.23c.54-.21.64-.49.72-1.44.08-1.78.05-3.92.05-6.34v-6.19a1.23 1.23 0 00-1.24-1.29c-.39-.08-.9-.18-1.62-.26a2.31 2.31 0 01.49-1.13z" fill="#767676"/><path d="M75.98 32.45a5.18 5.18 0 01-1.68-.44.79.79 0 01-.21-.41c-.05-.9-.05-3.48-.05-5.21a6.08 6.08 0 00-.82-3.45 3.52 3.52 0 00-3-1.55 6.89 6.89 0 00-3.92 1.86s-.23.21-.21-.08.05-.85.08-1.24a.67.67 0 00-.18-.54 17.2 17.2 0 01-4 1c-.62.13-.77.72-.13.93a5.72 5.72 0 011.52.67.8.8 0 01.23.72c0 1.93 0 4.9-.05 6.52a.82.82 0 01-.67 1h.05a10.18 10.18 0 01-1.08.21 1.51 1.51 0 000 1.16c.28 0 1.78-.08 3-.08 1.7 0 2.58.08 3 .08a1.68 1.68 0 00.13-1.16 4.77 4.77 0 01-1.19-.18.74.74 0 01-.62-.88c-.05-1.37-.05-4.25-.05-6.21a1.24 1.24 0 01.31-1 3.9 3.9 0 012.4-.88 2.66 2.66 0 011.78.59 2.53 2.53 0 01.82 1.62c.13 1.11.08 3.3.08 5.21 0 1-.08 1.29-.46 1.42a4.91 4.91 0 01-1.19.23 1.51 1.51 0 000 1.16c.75 0 1.62-.08 2.91-.08 1.6 0 2.63.08 3 .08a1.8 1.8 0 00.08-1.11zm7.14-9.84c-1.37 0-2.22 1.06-2.22 2.71s.75 3.61 2.86 3.61a2 2 0 001.34-.52 3.41 3.41 0 00.83-2.37c0-2.14-1.06-3.43-2.81-3.43zM82.94 34a2.22 2.22 0 00-1.11.28c-1.08.7-1.57 1.37-1.57 2.17a2.28 2.28 0 00.9 1.86 4.58 4.58 0 003.09 1c2.63 0 3.79-1.42 3.79-2.81a2 2 0 00-1.49-2 10.41 10.41 0 00-3.61-.46zm.18 6.7a5.7 5.7 0 01-3.69-1.08 3.4 3.4 0 01-1.37-2.55 2 2 0 01.52-1.29 13.67 13.67 0 012.37-1.91.11.11 0 00.08-.1.17.17 0 00-.1-.13 2.45 2.45 0 01-1.68-1.62V32a.37.37 0 01.16-.46c.18-.13.44-.28.72-.46a10.59 10.59 0 001.19-.77.19.19 0 00.05-.15.17.17 0 00-.1-.13 3.76 3.76 0 01-2.71-3.94 3.91 3.91 0 011.65-3.25 7.58 7.58 0 013.71-1.26H84a7.9 7.9 0 012.83.62 4.77 4.77 0 001.68.26 2.23 2.23 0 001.8-.67 1.4 1.4 0 01.1.52 2 2 0 01-.34 1.19 1.46 1.46 0 01-1.13.49h-.13a5.74 5.74 0 01-.67-.1l-.1.05a.24.24 0 000 .18v.05a9.51 9.51 0 01.15 1.11 4.18 4.18 0 01-1.75 3.74 5.94 5.94 0 01-3 1.16h-.7a.93.93 0 00-.72.75c0 .39.23.85 1.34.93l.72.05a22.6 22.6 0 014.15.52 2.89 2.89 0 011.93 2.76c0 1.91-1.37 3.69-3.63 4.79a8.29 8.29 0 01-3.43.75zm14.69-18a2.39 2.39 0 00-1.39.39c-1 .62-1.52 1.86-1.52 3.66 0 3.38 1.7 5.75 4.12 5.75a2.62 2.62 0 001.78-.62c.75-.62 1.13-1.86 1.13-3.58 0-3.35-1.68-5.59-4.12-5.59zm.46 11c-4.38 0-6-3.22-6-6.24a5.58 5.58 0 012.55-4.9 7.76 7.76 0 013.94-1.16 5.52 5.52 0 015.7 5.85 6 6 0 01-2.71 5.33 7.15 7.15 0 01-3.53 1.11zm-45.93-11a2.39 2.39 0 00-1.39.39c-1 .62-1.52 1.86-1.52 3.66 0 3.38 1.7 5.75 4.12 5.75a2.62 2.62 0 001.78-.62c.75-.62 1.13-1.86 1.13-3.58 0-3.35-1.65-5.59-4.12-5.59zm.46 11c-4.38 0-6-3.22-6-6.24a5.58 5.58 0 012.55-4.9 7.76 7.76 0 013.94-1.16 5.52 5.52 0 015.7 5.85 6 6 0 01-2.71 5.33 7 7 0 01-3.53 1.11zm-29.46-.26a1.1 1.1 0 01-.08-.59.87.87 0 01.08-.39 9.51 9.51 0 001.13-.23.93.93 0 00.75-1.06c.08-1.55.08-4.48.05-6.52v-.05a.78.78 0 00-.28-.72 5.82 5.82 0 00-1.55-.67.4.4 0 01-.36-.36.48.48 0 01.49-.39 18.86 18.86 0 003.94-1 .64.64 0 01.13.41v.28c0 .28-.05.62-.05 1a.2.2 0 00.21.18.36.36 0 00.15-.05 7.27 7.27 0 013.92-1.75 3.34 3.34 0 013 1.83.19.19 0 00.18.1.18.18 0 00.15-.08 7.83 7.83 0 014-1.86c2.4 0 3.81 1.78 3.81 4.79v5.32a.81.81 0 00.46.62 5.5 5.5 0 001.5.36 2.07 2.07 0 01-.15 1 6.33 6.33 0 01-.64 0q-1-.05-2-.05c-1.6 0-2.42 0-3.22.08a2.51 2.51 0 010-1 8 8 0 001-.23.88.88 0 00.67-1.06c0-.49.1-4.66-.05-5.67a2.54 2.54 0 00-2.63-2.24 4.57 4.57 0 00-2.63 1 .46.46 0 00-.1.26 11.87 11.87 0 01.1 2.11v4.75a.76.76 0 00.62.8l.39.08.82.18a1.39 1.39 0 010 .72.49.49 0 01-.1.26c-.88 0-1.78-.05-3.09-.05h-2.78a1.36 1.36 0 01-.08-.52.8.8 0 01.1-.46 1.74 1.74 0 01.36-.05l.82-.15a.81.81 0 00.62-.93 44.73 44.73 0 000-5.9 2.43 2.43 0 00-2.53-2.24 4.73 4.73 0 00-2.63 1 .83.83 0 00-.23.59v6.7a.8.8 0 00.72.8 5.4 5.4 0 00.59.1l.46.08a2.16 2.16 0 01-.08 1h-.93c-.54 0-1.24-.05-2-.05s-1.55 0-2.06.05a6.23 6.23 0 00-1-.05z" fill="#333"/><path d="M9.79 39.69l-1.06-.36s.13-5.39-1.8-5.77c-1.29-1.5.21-63.4 4.85-.21a3.77 3.77 0 00-1.88 2.17 19.88 19.88 0 00-.1 4.18z" fill="#fff"/><path d="M9.79 39.69l-1.06-.36s.13-5.39-1.8-5.77c-1.29-1.5.21-63.4 4.85-.21a3.77 3.77 0 00-1.88 2.17 19.88 19.88 0 00-.1 4.18z" fill="#a1a1a1"/><path d="M10.36 34.48s9.25-6.08 7.09-18.74c-2.09-9.2-7-12.22-7.55-13.38A13 13 0 018.74.09l.39 25.59s-.8 7.84 1.24 8.79" fill="#fff"/><path d="M10.36 34.48s9.25-6.08 7.09-18.74c-2.09-9.2-7-12.22-7.55-13.38A13 13 0 018.74.09l.39 25.59s-.8 7.84 1.24 8.79" fill="#7b7b7b"/><path d="M8.2 34.82S-.49 28.89.03 18.45 6.65 2.88 7.84 1.96a2.4 2.4 0 00.85-2c.54 1.16.44 17.35.52 19.25.22 7.39-.42 14.22-1.01 15.61z" fill="#fff"/><path d="M8.2 34.82S-.49 28.89.03 18.45 6.65 2.88 7.84 1.96a2.4 2.4 0 00.85-2c.54 1.16.44 17.35.52 19.25.22 7.39-.42 14.22-1.01 15.61z" fill="#878787"/></svg>