<svg data-name="Layer 1" xmlns="http://www.w3.org/2000/svg" viewBox="0 0 44.06 48.55"><path d="M20.04.52a4.07 4.07 0 0 1 4 0L42.2 10.77a3.74 3.74 0 0 1 1.89 3.22v20.57a3.78 3.78 0 0 1-2 3.29L23.94 48.06a4 4 0 0 1-4-.11l-5.43-3.14a3.2 3.2 0 0 1-1-.75 2 2 0 0 1 1-.49 12.67 12.67 0 0 0 2.14-1 .5.5 0 0 1 .56 0c1.55.89 3.08 1.8 4.63 2.68a1 1 0 0 0 .95-.22l17.76-10a.59.59 0 0 0 .32-.58V14.09a.64.64 0 0 0-.38-.63l-18-10.16a.63.63 0 0 0-.71 0l-18 10.16a.63.63 0 0 0-.38.63v20.36a.58.58 0 0 0 .33.57l4.81 2.72a3.72 3.72 0 0 0 3 .4 2.28 2.28 0 0 0 1.48-2.15V15.75a.51.51 0 0 1 .55-.52h2.31a.53.53 0 0 1 .5.62v20.37a5.16 5.16 0 0 1-2.42 4.66 7.44 7.44 0 0 1-6.65-.18c-1.76-.88-3.45-1.92-5.18-2.86a3.77 3.77 0 0 1-2-3.29V13.99a3.74 3.74 0 0 1 2-3.26z" fill="#a8a8a8"/><path d="M25.3 14.77c2.63-.17 5.45-.1 7.81 1.2a5.91 5.91 0 0 1 2.88 5.11.55.55 0 0 1-.6.41H33.1a.59.59 0 0 1-.55-.57 3.49 3.49 0 0 0-1.67-2.41 9.88 9.88 0 0 0-4.57-.65 6.21 6.21 0 0 0-3.27.82 1.75 1.75 0 0 0 .78 3.26c3.17.83 6.53.75 9.64 1.84a4.54 4.54 0 0 1 3 2.66 5.68 5.68 0 0 1-1 5.42 7.59 7.59 0 0 1-4.07 2.2 19.57 19.57 0 0 1-6.15.26 9.69 9.69 0 0 1-5.41-2A5.68 5.68 0 0 1 18 27.84a.51.51 0 0 1 .56-.45h2.31a.54.54 0 0 1 .55.53 3.49 3.49 0 0 0 1.3 2.45c1.56 1 3.52.94 5.31 1 1.48-.07 3.14-.09 4.35-1.06a2.4 2.4 0 0 0 .65-2.3 2.08 2.08 0 0 0-1.51-1.2c-3.13-1-6.53-.63-9.62-1.75a4.68 4.68 0 0 1-3-2.58 5.28 5.28 0 0 1 1.05-5.49 8.51 8.51 0 0 1 5.28-2.12z" fill="#a8a8a8"/></svg>