<svg data-name="Layer 1" xmlns="http://www.w3.org/2000/svg" viewBox="0 0 50.13 23.93"><path d="M10.04 8.01q2.35 0 3.13.87t.37 3a5 5 0 01-1.65 3.13 6 6 0 01-3.71.94h-2.5l1.54-7.91h2.82zm-10 15.92h4.12l1-5h3.53a12.63 12.63 0 003.84-.49 7.28 7.28 0 002.74-1.64 8.22 8.22 0 002.59-4.63q.65-3.36-1-5.24t-5.21-1.88H3.73zM20.82 0h4.09l-1 5h3.64q3.44 0 4.74 1.2t.78 3.88l-1.71 8.8h-4.15l1.63-8.37a2.27 2.27 0 00-.2-1.95 2.87 2.87 0 00-2.05-.52h-3.21l-2.11 10.83h-4.09zm21.36 8.01q2.35 0 3.13.87t.37 3a5 5 0 01-1.65 3.13 6 6 0 01-3.71.94h-2.51l1.54-7.91h2.82zm-10 15.92h4.12l1-5h3.53a12.63 12.63 0 003.84-.49 7.28 7.28 0 002.74-1.64A8.22 8.22 0 0050 12.17q.65-3.36-1-5.24t-5.21-1.88h-7.92z" data-name="Layer 2"/></svg>