<svg data-name="Layer 1" xmlns="http://www.w3.org/2000/svg" viewBox="0 0 42.91 48.55"><path d="M21.46 0l21.46 12.14v24.24L21.46 48.52 0 36.38V12.14z" fill="#fff"/><path d="M39.08 35.58l-16.92 9.57V37.7l10.54-5.8zm1.16-1v-20l-6.19 3.57v12.86l6.19 3.58zm-36.48 1l16.92 9.57V37.7l-10.54-5.8-6.38 3.68zm-1.16-1v-20l6.19 3.57v12.86L2.6 34.59zm.72-21.31l17.36-9.89v7.21L9.57 16.7h-.08zm36.18 0L22.17 3.38v7.21l11.11 6.11h.08z" fill="#c4c4c4"/><path d="M20.68 36l-10.4-5.72V18.95l10.4 6v11m1.48 0l10.4-5.72V18.95l-10.4 6v11M10.98 17.59l10.44-5.74 10.42 5.79-10.44 6-10.44-6" fill="#646464"/></svg>