<svg data-name="Layer 1" xmlns="http://www.w3.org/2000/svg" viewBox="0 0 49.56 49.56"><path d="M3.53 24.78a21.26 21.26 0 0 0 12 19.13L5.39 16.13a21.18 21.18 0 0 0-1.86 8.65zm35.61-1.07a11.19 11.19 0 0 0-1.75-5.86c-1.08-1.75-2.09-3.23-2.09-5a3.68 3.68 0 0 1 3.57-3.77h.28a21.25 21.25 0 0 0-32.11 4h1.37c2.22 0 5.66-.27 5.66-.27a.88.88 0 0 1 .14 1.75s-1.15.14-2.43.2l7.74 23 4.65-14-3.31-9.07c-1.14-.07-2.23-.2-2.23-.2a.88.88 0 0 1 .13-1.75s3.51.27 5.6.27 5.67-.27 5.67-.27a.88.88 0 0 1 .14 1.75s-1.15.14-2.43.2l7.68 22.85 2.12-7.09c.92-2.94 1.62-5.05 1.62-6.87zm-14 2.93l-6.38 18.53a21.27 21.27 0 0 0 13.06-.34 1.87 1.87 0 0 1-.15-.29l-6.53-17.9zm18.28-12.06a16.32 16.32 0 0 1 .14 2.19 20.05 20.05 0 0 1-1.62 7.61l-6.49 18.77a21.26 21.26 0 0 0 8-28.57zM24.78 0a24.78 24.78 0 1 0 24.78 24.78A24.81 24.81 0 0 0 24.78 0zm0 48.42a23.64 23.64 0 1 1 23.64-23.64 23.67 23.67 0 0 1-23.64 23.64z" fill="#464342"/></svg>